<?xml version="1.0" encoding="utf-8"?>
<!-- Generator: Adobe Illustrator 21.1.0, SVG Export Plug-In . SVG Version: 6.00 Build 0)  -->
<svg version="1.1" id="logo_on_white" xmlns="http://www.w3.org/2000/svg" xmlns:xlink="http://www.w3.org/1999/xlink" x="0px"
	 y="0px" viewBox="0 0 1326 349.6" style="enable-background:new 0 0 1326 349.6;" xml:space="preserve">
<style type="text/css">
	.st0{fill:#00BEFA;}
</style>
<g>
	<path d="M382.2,93.9H382c0,0.3,0.8,22.1,0.8,45.9v134.6h-10.9V78.5h10.9l130.4,179.2h0.3c0-0.3-0.8-22.1-0.8-45.3V78.5h10.9v195.9
		h-10.9L382.2,93.9z"/>
	<path d="M572.3,78.5h126.2v10.4H583.2v76.7h92.1V176h-92.1v88.2h115.6v10.4H572.3V78.5z"/>
	<path d="M882.4,195.2c0,53.7-24.1,82.6-74.7,82.6s-74.5-28.8-74.5-82.6V78.5h10.6v117.8c0,46.7,19.9,71.1,63.8,71.1
		c44.2,0,64.1-24.4,64.1-71.1V78.5h10.6v116.7H882.4z"/>
	<path d="M991.9,191.3c-5,0.3-17.1,0.3-21.8,0.3h-30.5v82.9h-10.9v-196h52.9c44.2,0,70.5,21,70.5,58.5c0,31.9-19,48.1-48.7,52.6
		l50.4,84.8h-13.4L991.9,191.3z M983.2,182.1c33.9,0,58.2-10.9,58.2-45.1c0-33.3-23.5-48.4-60.2-48.4h-41.7v93.5H983.2z"/>
	<path d="M1114.2,212.6l-27.4,61.9h-11.5l87.1-195.9h10.9l87.1,195.9h-11.5l-27.4-61.9H1114.2z M1191.5,145.4
		c-8.4-18.8-23.2-54-23.5-54.3h-0.3c-0.3,0.3-15.4,35.6-23.5,54.3l-25.8,57.4h98.5L1191.5,145.4z"/>
</g>
<g>
	<polygon class="st0" points="179.7,50.9 154.6,76 210.7,132.1 98.5,132.1 63,167.6 296.4,167.6 	"/>
	<polygon class="st0" points="63,185.3 179.7,302 204.8,276.9 148.8,220.9 260.9,220.9 296.4,185.3 	"/>
</g>
</svg>
